<mxfile host="Electron" modified="2023-08-01T16:31:18.913Z" agent="Mozilla/5.0 (Windows NT 10.0; Win64; x64) AppleWebKit/537.36 (KHTML, like Gecko) draw.io/21.6.5 Chrome/114.0.5735.243 Electron/25.3.1 Safari/537.36" etag="QBa_a4_2K_4EBSNs3VZh" version="21.6.5" type="device">
  <diagram name="Page-1" id="bDlqiz4IERHXxEkZ9xLS">
    <mxGraphModel dx="864" dy="495" grid="1" gridSize="10" guides="1" tooltips="1" connect="1" arrows="1" fold="1" page="1" pageScale="1" pageWidth="1169" pageHeight="827" math="0" shadow="0">
      <root>
        <mxCell id="0" />
        <mxCell id="1" parent="0" />
        <mxCell id="H5ptrKdzrHBt4oCyG6K3-1" value="&lt;b&gt;&lt;i&gt;Person&lt;/i&gt;&lt;/b&gt;" style="fontStyle=0;html=1;whiteSpace=wrap;" parent="1" vertex="1">
          <mxGeometry x="160" y="320" width="80" height="40" as="geometry" />
        </mxCell>
        <mxCell id="H5ptrKdzrHBt4oCyG6K3-2" value="&lt;b&gt;Employee&lt;/b&gt;" style="fontStyle=0;html=1;whiteSpace=wrap;" parent="1" vertex="1">
          <mxGeometry x="280" y="440" width="80" height="40" as="geometry" />
        </mxCell>
        <mxCell id="H5ptrKdzrHBt4oCyG6K3-3" value="&lt;b&gt;Man&lt;/b&gt;" style="fontStyle=0;html=1;whiteSpace=wrap;" parent="1" vertex="1">
          <mxGeometry x="160" y="440" width="80" height="40" as="geometry" />
        </mxCell>
        <mxCell id="H5ptrKdzrHBt4oCyG6K3-4" value="&lt;b&gt;Woman&lt;/b&gt;" style="fontStyle=0;html=1;whiteSpace=wrap;" parent="1" vertex="1">
          <mxGeometry x="40" y="440" width="80" height="40" as="geometry" />
        </mxCell>
        <mxCell id="H5ptrKdzrHBt4oCyG6K3-5" value="" style="endArrow=block;html=1;rounded=0;align=center;verticalAlign=bottom;endFill=0;labelBackgroundColor=none;endSize=8;exitX=0.5;exitY=0;exitDx=0;exitDy=0;entryX=0.25;entryY=1;entryDx=0;entryDy=0;" parent="1" source="H5ptrKdzrHBt4oCyG6K3-4" target="H5ptrKdzrHBt4oCyG6K3-1" edge="1">
          <mxGeometry x="-0.2883" y="32" relative="1" as="geometry">
            <mxPoint x="370" y="560" as="sourcePoint" />
            <mxPoint x="530" y="560" as="targetPoint" />
            <mxPoint as="offset" />
          </mxGeometry>
        </mxCell>
        <mxCell id="H5ptrKdzrHBt4oCyG6K3-7" value="" style="endArrow=block;html=1;rounded=0;align=center;verticalAlign=bottom;endFill=0;labelBackgroundColor=none;endSize=8;exitX=0.5;exitY=0;exitDx=0;exitDy=0;entryX=0.5;entryY=1;entryDx=0;entryDy=0;" parent="1" source="H5ptrKdzrHBt4oCyG6K3-3" target="H5ptrKdzrHBt4oCyG6K3-1" edge="1">
          <mxGeometry x="-0.25" relative="1" as="geometry">
            <mxPoint x="99" y="453" as="sourcePoint" />
            <mxPoint x="190" y="370" as="targetPoint" />
            <mxPoint as="offset" />
          </mxGeometry>
        </mxCell>
        <mxCell id="H5ptrKdzrHBt4oCyG6K3-8" value="employment&lt;br&gt;status" style="endArrow=block;html=1;rounded=0;align=center;verticalAlign=bottom;endFill=0;labelBackgroundColor=none;endSize=8;exitX=0.5;exitY=0;exitDx=0;exitDy=0;entryX=0.75;entryY=1;entryDx=0;entryDy=0;" parent="1" source="H5ptrKdzrHBt4oCyG6K3-2" target="H5ptrKdzrHBt4oCyG6K3-1" edge="1">
          <mxGeometry x="-0.3659" y="-19" relative="1" as="geometry">
            <mxPoint x="210" y="450" as="sourcePoint" />
            <mxPoint x="210" y="370" as="targetPoint" />
            <mxPoint as="offset" />
          </mxGeometry>
        </mxCell>
        <mxCell id="H5ptrKdzrHBt4oCyG6K3-17" value="gender" style="endArrow=none;startArrow=none;endFill=0;startFill=0;endSize=8;html=1;verticalAlign=bottom;dashed=1;labelBackgroundColor=none;dashPattern=10 10;rounded=0;" parent="1" edge="1">
          <mxGeometry x="-0.875" width="160" relative="1" as="geometry">
            <mxPoint x="70" y="400" as="sourcePoint" />
            <mxPoint x="230" y="400" as="targetPoint" />
            <mxPoint as="offset" />
          </mxGeometry>
        </mxCell>
        <mxCell id="jK_DcaLakZgWedDVneFn-1" value="&lt;b&gt;&lt;i&gt;Person&lt;/i&gt;&lt;/b&gt;" style="fontStyle=0;html=1;whiteSpace=wrap;" vertex="1" parent="1">
          <mxGeometry x="520" y="320" width="80" height="40" as="geometry" />
        </mxCell>
        <mxCell id="jK_DcaLakZgWedDVneFn-2" value="&lt;b&gt;Employee&lt;/b&gt;" style="fontStyle=0;html=1;whiteSpace=wrap;" vertex="1" parent="1">
          <mxGeometry x="640" y="440" width="80" height="40" as="geometry" />
        </mxCell>
        <mxCell id="jK_DcaLakZgWedDVneFn-3" value="&lt;b&gt;Man&lt;/b&gt;" style="fontStyle=0;html=1;whiteSpace=wrap;" vertex="1" parent="1">
          <mxGeometry x="520" y="440" width="80" height="40" as="geometry" />
        </mxCell>
        <mxCell id="jK_DcaLakZgWedDVneFn-4" value="&lt;b&gt;Woman&lt;/b&gt;" style="fontStyle=0;html=1;whiteSpace=wrap;" vertex="1" parent="1">
          <mxGeometry x="400" y="440" width="80" height="40" as="geometry" />
        </mxCell>
        <mxCell id="jK_DcaLakZgWedDVneFn-5" value="" style="endArrow=block;html=1;rounded=0;align=center;verticalAlign=bottom;endFill=0;labelBackgroundColor=none;endSize=8;exitX=0.5;exitY=0;exitDx=0;exitDy=0;entryX=0.25;entryY=1;entryDx=0;entryDy=0;" edge="1" source="jK_DcaLakZgWedDVneFn-4" target="jK_DcaLakZgWedDVneFn-1" parent="1">
          <mxGeometry x="-0.2883" y="32" relative="1" as="geometry">
            <mxPoint x="730" y="560" as="sourcePoint" />
            <mxPoint x="890" y="560" as="targetPoint" />
            <mxPoint as="offset" />
          </mxGeometry>
        </mxCell>
        <mxCell id="jK_DcaLakZgWedDVneFn-6" value="" style="endArrow=block;html=1;rounded=0;align=center;verticalAlign=bottom;endFill=0;labelBackgroundColor=none;endSize=8;exitX=0.5;exitY=0;exitDx=0;exitDy=0;entryX=0.5;entryY=1;entryDx=0;entryDy=0;" edge="1" source="jK_DcaLakZgWedDVneFn-3" target="jK_DcaLakZgWedDVneFn-1" parent="1">
          <mxGeometry x="-0.25" relative="1" as="geometry">
            <mxPoint x="459" y="453" as="sourcePoint" />
            <mxPoint x="550" y="370" as="targetPoint" />
            <mxPoint as="offset" />
          </mxGeometry>
        </mxCell>
        <mxCell id="jK_DcaLakZgWedDVneFn-7" value="" style="endArrow=block;html=1;rounded=0;align=center;verticalAlign=bottom;endFill=0;labelBackgroundColor=none;endSize=8;exitX=0.5;exitY=0;exitDx=0;exitDy=0;entryX=0.75;entryY=1;entryDx=0;entryDy=0;" edge="1" source="jK_DcaLakZgWedDVneFn-2" target="jK_DcaLakZgWedDVneFn-1" parent="1">
          <mxGeometry x="-0.3659" y="-19" relative="1" as="geometry">
            <mxPoint x="570" y="450" as="sourcePoint" />
            <mxPoint x="570" y="370" as="targetPoint" />
            <mxPoint as="offset" />
          </mxGeometry>
        </mxCell>
        <mxCell id="jK_DcaLakZgWedDVneFn-8" value="" style="endArrow=none;startArrow=none;endFill=0;startFill=0;endSize=8;html=1;verticalAlign=bottom;dashed=1;labelBackgroundColor=none;dashPattern=10 10;rounded=0;" edge="1" parent="1">
          <mxGeometry x="-0.875" width="160" relative="1" as="geometry">
            <mxPoint x="430" y="400" as="sourcePoint" />
            <mxPoint x="590" y="400" as="targetPoint" />
            <mxPoint as="offset" />
          </mxGeometry>
        </mxCell>
        <mxCell id="jK_DcaLakZgWedDVneFn-9" value="&lt;b&gt;&lt;i&gt;Person&lt;/i&gt;&lt;/b&gt;" style="fontStyle=0;html=1;whiteSpace=wrap;" vertex="1" parent="1">
          <mxGeometry x="160" y="80" width="80" height="40" as="geometry" />
        </mxCell>
        <mxCell id="jK_DcaLakZgWedDVneFn-10" value="&lt;b&gt;Employee&lt;/b&gt;" style="fontStyle=0;html=1;whiteSpace=wrap;" vertex="1" parent="1">
          <mxGeometry x="280" y="200" width="80" height="40" as="geometry" />
        </mxCell>
        <mxCell id="jK_DcaLakZgWedDVneFn-11" value="&lt;b&gt;Man&lt;/b&gt;" style="fontStyle=0;html=1;whiteSpace=wrap;" vertex="1" parent="1">
          <mxGeometry x="160" y="200" width="80" height="40" as="geometry" />
        </mxCell>
        <mxCell id="jK_DcaLakZgWedDVneFn-12" value="&lt;b&gt;Woman&lt;/b&gt;" style="fontStyle=0;html=1;whiteSpace=wrap;" vertex="1" parent="1">
          <mxGeometry x="40" y="200" width="80" height="40" as="geometry" />
        </mxCell>
        <mxCell id="jK_DcaLakZgWedDVneFn-13" value="" style="endArrow=block;html=1;rounded=0;align=center;verticalAlign=bottom;endFill=0;labelBackgroundColor=none;endSize=8;exitX=0.5;exitY=0;exitDx=0;exitDy=0;entryX=0.25;entryY=1;entryDx=0;entryDy=0;" edge="1" source="jK_DcaLakZgWedDVneFn-12" target="jK_DcaLakZgWedDVneFn-9" parent="1">
          <mxGeometry x="-0.2883" y="32" relative="1" as="geometry">
            <mxPoint x="370" y="320" as="sourcePoint" />
            <mxPoint x="530" y="320" as="targetPoint" />
            <mxPoint as="offset" />
          </mxGeometry>
        </mxCell>
        <mxCell id="jK_DcaLakZgWedDVneFn-14" value="" style="endArrow=block;html=1;rounded=0;align=center;verticalAlign=bottom;endFill=0;labelBackgroundColor=none;endSize=8;exitX=0.5;exitY=0;exitDx=0;exitDy=0;entryX=0.5;entryY=1;entryDx=0;entryDy=0;" edge="1" source="jK_DcaLakZgWedDVneFn-11" target="jK_DcaLakZgWedDVneFn-9" parent="1">
          <mxGeometry x="-0.25" relative="1" as="geometry">
            <mxPoint x="99" y="213" as="sourcePoint" />
            <mxPoint x="190" y="130" as="targetPoint" />
            <mxPoint as="offset" />
          </mxGeometry>
        </mxCell>
        <mxCell id="jK_DcaLakZgWedDVneFn-15" value="employment&lt;br&gt;status" style="endArrow=block;html=1;rounded=0;align=center;verticalAlign=bottom;endFill=0;labelBackgroundColor=none;endSize=8;exitX=0.5;exitY=0;exitDx=0;exitDy=0;entryX=0.75;entryY=1;entryDx=0;entryDy=0;" edge="1" source="jK_DcaLakZgWedDVneFn-10" target="jK_DcaLakZgWedDVneFn-9" parent="1">
          <mxGeometry x="-0.3659" y="-19" relative="1" as="geometry">
            <mxPoint x="210" y="210" as="sourcePoint" />
            <mxPoint x="210" y="130" as="targetPoint" />
            <mxPoint as="offset" />
          </mxGeometry>
        </mxCell>
        <mxCell id="jK_DcaLakZgWedDVneFn-17" value="gender" style="text;html=1;align=center;verticalAlign=middle;resizable=0;points=[];autosize=1;strokeColor=none;fillColor=none;" vertex="1" parent="1">
          <mxGeometry x="70" y="138" width="60" height="30" as="geometry" />
        </mxCell>
        <mxCell id="jK_DcaLakZgWedDVneFn-18" value="gender" style="text;html=1;align=center;verticalAlign=middle;resizable=0;points=[];autosize=1;strokeColor=none;fillColor=none;" vertex="1" parent="1">
          <mxGeometry x="145" y="150" width="60" height="30" as="geometry" />
        </mxCell>
        <mxCell id="jK_DcaLakZgWedDVneFn-19" value="&lt;b&gt;&lt;i&gt;Person&lt;/i&gt;&lt;/b&gt;" style="fontStyle=0;html=1;whiteSpace=wrap;" vertex="1" parent="1">
          <mxGeometry x="520" y="80" width="80" height="40" as="geometry" />
        </mxCell>
        <mxCell id="jK_DcaLakZgWedDVneFn-20" value="&lt;b&gt;Employee&lt;/b&gt;" style="fontStyle=0;html=1;whiteSpace=wrap;" vertex="1" parent="1">
          <mxGeometry x="600" y="200" width="80" height="40" as="geometry" />
        </mxCell>
        <mxCell id="jK_DcaLakZgWedDVneFn-21" value="&lt;b&gt;Man&lt;/b&gt;" style="fontStyle=0;html=1;whiteSpace=wrap;" vertex="1" parent="1">
          <mxGeometry x="440" y="240" width="80" height="40" as="geometry" />
        </mxCell>
        <mxCell id="jK_DcaLakZgWedDVneFn-22" value="&lt;b&gt;Woman&lt;/b&gt;" style="fontStyle=0;html=1;whiteSpace=wrap;" vertex="1" parent="1">
          <mxGeometry x="440" y="180" width="80" height="40" as="geometry" />
        </mxCell>
        <mxCell id="jK_DcaLakZgWedDVneFn-23" value="" style="endArrow=block;html=1;rounded=0;align=center;verticalAlign=bottom;endFill=0;labelBackgroundColor=none;endSize=8;exitX=1;exitY=0.5;exitDx=0;exitDy=0;entryX=0.25;entryY=1;entryDx=0;entryDy=0;" edge="1" source="jK_DcaLakZgWedDVneFn-22" target="jK_DcaLakZgWedDVneFn-19" parent="1">
          <mxGeometry x="-0.2883" y="32" relative="1" as="geometry">
            <mxPoint x="730" y="320" as="sourcePoint" />
            <mxPoint x="890" y="320" as="targetPoint" />
            <mxPoint as="offset" />
            <Array as="points">
              <mxPoint x="540" y="200" />
            </Array>
          </mxGeometry>
        </mxCell>
        <mxCell id="jK_DcaLakZgWedDVneFn-24" value="" style="endArrow=block;html=1;rounded=0;align=center;verticalAlign=bottom;endFill=0;labelBackgroundColor=none;endSize=8;exitX=1;exitY=0.5;exitDx=0;exitDy=0;entryX=0.25;entryY=1;entryDx=0;entryDy=0;" edge="1" source="jK_DcaLakZgWedDVneFn-21" target="jK_DcaLakZgWedDVneFn-19" parent="1">
          <mxGeometry x="-0.25" relative="1" as="geometry">
            <mxPoint x="459" y="213" as="sourcePoint" />
            <mxPoint x="550" y="130" as="targetPoint" />
            <mxPoint as="offset" />
            <Array as="points">
              <mxPoint x="540" y="260" />
            </Array>
          </mxGeometry>
        </mxCell>
        <mxCell id="jK_DcaLakZgWedDVneFn-25" value="employment&lt;br&gt;status" style="endArrow=block;html=1;rounded=0;align=center;verticalAlign=bottom;endFill=0;labelBackgroundColor=none;endSize=8;exitX=0;exitY=0.5;exitDx=0;exitDy=0;entryX=0.75;entryY=1;entryDx=0;entryDy=0;" edge="1" source="jK_DcaLakZgWedDVneFn-20" target="jK_DcaLakZgWedDVneFn-19" parent="1">
          <mxGeometry x="0.5" y="-50" relative="1" as="geometry">
            <mxPoint x="570" y="210" as="sourcePoint" />
            <mxPoint x="570" y="130" as="targetPoint" />
            <mxPoint as="offset" />
            <Array as="points">
              <mxPoint x="580" y="220" />
            </Array>
          </mxGeometry>
        </mxCell>
        <mxCell id="jK_DcaLakZgWedDVneFn-26" value="gender" style="text;html=1;align=center;verticalAlign=middle;resizable=0;points=[];autosize=1;strokeColor=none;fillColor=none;" vertex="1" parent="1">
          <mxGeometry x="460" y="118" width="60" height="30" as="geometry" />
        </mxCell>
      </root>
    </mxGraphModel>
  </diagram>
</mxfile>
